<svg width="182" height="157" viewBox="0 0 182 157" fill="none" xmlns="http://www.w3.org/2000/svg">
<path d="M13.7887 85.4309C-18.8405 48.0033 12.4559 28.3831 45.3783 20.6524C69.3704 15.3208 180.302 1.92157 156.541 52.6418C135.748 97.0272 243.312 101.825 126.951 131.416C10.5897 161.006 54.5751 132.215 13.7887 85.4309Z" fill="#FA801F" fill-opacity="0.2"/>
<circle cx="21.5" cy="97.5" r="9.5" fill="#FA801F"/>
<circle cx="66" cy="25" r="10" fill="#FA801F"/>
<circle cx="150.5" cy="15.5" r="15.5" fill="#FA801F"/>
<circle cx="157" cy="123" r="4" fill="#FA801F"/>
<path d="M65.3855 137.445V140.796H94.368V137.445H65.3855Z" fill="#A15842"/>
<path d="M99.1428 154.835L91.9633 111.756H96.3536C96.8241 111.756 97.2754 111.569 97.608 111.237C97.9407 110.904 98.1276 110.453 98.1276 109.982C98.1276 109.512 97.9407 109.061 97.608 108.728C97.2754 108.395 96.8241 108.208 96.3536 108.208H63.4345C62.964 108.208 62.5128 108.395 62.1801 108.728C61.8474 109.061 61.6605 109.512 61.6605 109.982C61.6605 110.453 61.8474 110.904 62.1801 111.237C62.5128 111.569 62.964 111.756 63.4345 111.756H67.7902L60.6107 154.835C60.5753 155.049 60.5867 155.267 60.6442 155.476C60.7017 155.684 60.8039 155.877 60.9437 156.042C61.0834 156.207 61.2574 156.34 61.4536 156.431C61.6498 156.522 61.8634 156.569 62.0796 156.569V156.569C62.4194 156.569 62.7492 156.453 63.0138 156.24C63.2785 156.026 63.4621 155.729 63.5342 155.397L73.0472 111.756H86.7064L96.2173 155.397C96.2901 155.729 96.4743 156.026 96.7392 156.239C97.0041 156.453 97.334 156.569 97.674 156.569V156.569C97.8902 156.569 98.1038 156.522 98.2999 156.431C98.4961 156.34 98.6701 156.207 98.8099 156.042C98.9497 155.877 99.0519 155.684 99.1094 155.476C99.1668 155.267 99.1783 155.049 99.1428 154.835Z" fill="#8D594A"/>
<path d="M98.3048 137.388H119.259C119.52 132.939 120.45 127.037 121.221 119.064C121.906 111.994 122.496 106.06 122.458 101.161C122.392 92.9948 101.503 102.878 101.503 102.878C101.503 104.662 101.863 106.375 101.873 108.035C101.898 112.348 99.7126 116.018 98.1522 121.22C95.7862 129.108 97.7575 137.388 97.7575 137.388H98.3048Z" fill="#194985"/>
<path d="M120.376 154.343H102.032C101.777 154.424 101.56 154.594 101.419 154.821C101.279 155.048 101.224 155.318 101.264 155.582C101.305 155.846 101.439 156.087 101.642 156.261C101.844 156.435 102.102 156.531 102.37 156.532L129.364 156.569C129.603 153.944 128.111 151.969 123.904 149.041C121.503 151.123 120.376 154.343 120.376 154.343Z" fill="#194985" fill-opacity="0.5"/>
<path d="M122.958 148.405C122.086 147.841 121.334 147.113 120.742 146.26C119.318 144.171 119.017 141.357 119.251 137.388H101.092C101.127 140.356 101.341 143.318 101.733 146.26C102.196 149.591 102.823 151.881 103.326 154.29H102.371C102.256 154.29 102.142 154.308 102.032 154.343H120.376C120.376 154.343 121.503 151.123 123.904 149.054C123.603 148.841 123.287 148.624 122.958 148.405Z" fill="#A15842"/>
<path d="M119.471 133.824C118.348 131.588 117.582 129.19 117.203 126.718C115.874 117.487 116.661 112.755 112.916 108.611H101.957" stroke="#30242A" stroke-width="0.813772" stroke-linecap="round" stroke-linejoin="round"/>
<path d="M126.305 138.175L126.325 138.224L142.503 130.648C141.244 126.88 139.927 121.867 137.765 115.306C135.738 109.167 134.398 104.579 133.128 101.029C131.353 102.308 129.163 102.877 126.99 102.624C124.817 102.372 122.816 101.316 121.381 99.6641C119.946 98.0123 119.181 95.8838 119.234 93.6964C119.288 91.509 120.158 89.4208 121.672 87.8416C113.036 83.9396 82.363 81.3945 82.363 81.3945L65.0114 78.8311C64.0959 80.3447 63.3167 82.7433 62.8936 85.5447H68.9562V92.0285C68.9529 93.3395 68.4301 94.5958 67.5023 95.522C66.5745 96.4483 65.3174 96.969 64.0064 96.9701H63.6605C63.5792 96.9701 63.4978 96.9701 63.4184 96.9701C65.0745 103.073 69.3346 108.214 78.0297 108.214H113.124C116.869 112.354 116.082 117.087 117.41 126.321C118.497 133.875 123.646 139.443 123.646 139.443L126.305 138.175Z" fill="#194985"/>
<path d="M150.95 146.852L134.837 154.16C134.564 154.351 134.373 154.637 134.301 154.962C134.23 155.287 134.283 155.627 134.45 155.915C134.618 156.202 134.888 156.416 135.206 156.515C135.524 156.613 135.867 156.588 136.167 156.445L160.617 145.052C159.659 142.407 157.195 141.39 151.359 140.373L151.108 140.326C150.625 142.469 150.571 144.688 150.95 146.852Z" fill="#194985" fill-opacity="0.5"/>
<path d="M151.108 140.318C149.428 139.996 148.11 139.437 147.021 138.59C145.015 137.028 143.786 134.485 142.503 130.656L126.325 138.232C127.696 141.384 129.621 144.698 131.454 147.591C133.055 150.109 134.583 152.305 135.61 153.775L135.026 154.058C134.96 154.091 134.897 154.129 134.837 154.172L150.95 146.864C150.568 144.693 150.622 142.468 151.108 140.318V140.318Z" fill="#A15842"/>
<path d="M128.005 102.687C129.845 102.688 131.638 102.108 133.128 101.029C130.603 93.9327 128.414 90.9766 121.794 87.8965L121.672 87.8416C120.482 89.0824 119.683 90.6457 119.374 92.3371C119.066 94.0284 119.261 95.7733 119.935 97.3546C120.61 98.936 121.735 100.284 123.17 101.231C124.605 102.179 126.286 102.683 128.005 102.683V102.687Z" fill="#194985" fill-opacity="0.5"/>
<path d="M64.0063 96.9701C65.3198 96.9701 66.5795 96.4484 67.5085 95.5199C68.4374 94.5913 68.9596 93.3318 68.9601 92.0183V85.5346H62.8975C62.3625 89.0521 62.393 93.1901 63.4183 96.964C63.4977 96.964 63.579 96.964 63.6604 96.964L64.0063 96.9701Z" fill="#194985" fill-opacity="0.5"/>
<path d="M112.824 108.701H118.739" stroke="#30242A" stroke-width="0.813772" stroke-linecap="round" stroke-linejoin="round"/>
<path d="M138.263 46.0035C138.263 46.0035 127.617 33.7807 115.038 29.3476" stroke="#30242A" stroke-width="0.813772" stroke-linecap="round" stroke-linejoin="round"/>
<path d="M104.87 34.1225C104.483 33.1887 105.773 31.7239 107.921 30.4869C105.012 29.7627 102.945 28.4139 103.153 27.2807C103.36 26.1475 105.769 25.6145 108.747 25.9644C107.181 24.052 106.491 22.2251 107.183 21.4887C108.064 20.5467 110.859 21.7348 113.425 24.1334C115.662 26.2289 116.985 28.5603 116.704 29.7464C116.547 30.9549 114.487 32.6678 111.655 33.8397C108.398 35.1905 105.364 35.3167 104.87 34.1225Z" fill="#FD3712"/>
<path d="M116.81 33.5427C118.862 33.5427 120.525 31.8794 120.525 29.8278C120.525 27.7761 118.862 26.1129 116.81 26.1129C114.758 26.1129 113.095 27.7761 113.095 29.8278C113.095 31.8794 114.758 33.5427 116.81 33.5427Z" fill="#30242A"/>
<path d="M124.637 34.6122C125.658 34.2333 125.194 30.4482 123.601 26.158C122.008 21.8678 119.889 18.6972 118.868 19.0761C117.848 19.4551 118.312 23.2402 119.905 27.5304C121.497 31.8206 123.616 34.9912 124.637 34.6122Z" fill="#30242A"/>
<path d="M95.6661 18.081C92.3011 21.8671 88.7246 22.7032 88.7246 22.7032C86.4114 20.1805 82.2144 20.1805 81.5736 23.755C80.8757 27.7161 85.7747 28.8065 85.7747 28.8065C85.7747 28.8065 87.0096 33.917 85.1155 36.4417C83.4432 38.6796 81.2948 39.0478 76.8923 39.5402C82.6294 49.2342 88.4886 48.4693 90.4396 48.4693C95.1188 48.4693 96.4371 43.0394 96.8053 40.24C95.7399 39.8685 94.6529 39.5621 93.5502 39.3225L92.9196 35.5384C92.9196 35.5384 95.8634 36.5882 98.3881 35.1173C100.913 33.6464 101.544 30.9101 100.701 26.7049C100.203 24.2128 100.221 21.1306 99.7939 18.376C98.1277 18.6588 95.6661 18.081 95.6661 18.081Z" fill="#A15842"/>
<path d="M130.666 39.2024C129.773 35.6279 122.781 33.6891 122.781 33.6891C122.781 33.6891 123.2 25.6653 121.4 25.409C120.02 25.2056 118.639 28.5644 117.457 35.0705C116.134 42.3416 116.865 55.7708 116.865 55.7708C116.865 55.7708 115.402 54.4423 113.327 52.593C113.12 53.0122 112.801 53.3666 112.407 53.6177C112.012 53.8687 111.557 54.0069 111.089 54.0171C111.384 54.3911 111.569 54.84 111.623 55.3134C111.677 55.7867 111.597 56.2656 111.394 56.6963C111.19 57.127 110.87 57.4923 110.47 57.7511C110.07 58.0099 109.606 58.152 109.13 58.1613C109.425 58.5353 109.61 58.9842 109.664 59.4575C109.717 59.9308 109.638 60.4098 109.434 60.8404C109.231 61.2711 108.911 61.6364 108.511 61.8952C108.111 62.154 107.647 62.2961 107.171 62.3054C107.48 62.698 107.668 63.1727 107.711 63.6709C107.754 64.1691 107.65 64.6689 107.412 65.1087C107.174 65.5484 106.812 65.9087 106.372 66.1452C105.931 66.3817 105.431 66.484 104.933 66.4394C109.252 69.251 115.123 72.5305 119.036 72.5305C139.539 72.5223 131.258 41.5685 130.666 39.2024Z" fill="#A15842"/>
<path d="M107.468 64.9766C107.671 64.546 107.751 64.0672 107.697 63.5939C107.644 63.1206 107.459 62.6716 107.165 62.2973C107.641 62.288 108.105 62.1459 108.505 61.8871C108.905 61.6283 109.225 61.263 109.428 60.8323C109.632 60.4016 109.711 59.9227 109.658 59.4494C109.604 58.9761 109.419 58.5271 109.124 58.1532C109.6 58.1438 110.064 58.0018 110.464 57.743C110.864 57.4842 111.184 57.1189 111.388 56.6882C111.591 56.2575 111.671 55.7786 111.617 55.3052C111.563 54.8319 111.378 54.383 111.083 54.009C111.551 53.9988 112.006 53.8606 112.401 53.6095C112.795 53.3585 113.114 53.0041 113.321 52.5849C109.744 49.399 104.351 44.6751 101.481 42.5532C100.091 41.5258 98.3211 40.7649 96.8013 40.24C96.4433 43.0475 95.1331 48.4693 90.4539 48.4693C88.511 48.4693 82.6437 49.2342 76.9066 39.5402L75.0635 39.7436C68.716 40.4496 65.8271 43.8654 64.1264 47.9464C63.0746 50.4712 62.2323 55.0974 62.2323 55.0974C61.5798 59.3389 61.2438 63.623 61.2273 67.9144L69.481 75.5536L91.64 76.1009C93.414 73.4846 96.6691 68.6529 97.7433 66.7995C99.1226 64.4334 99.32 62.4621 99.32 62.4621C99.32 62.4621 101.688 64.3134 104.933 66.4272C105.453 66.4728 105.975 66.3583 106.428 66.099C106.881 65.8397 107.244 65.4481 107.468 64.9766V64.9766Z" fill="#FA801F"/>
<path d="M97.9812 13.4527C95.4585 10.2993 88.517 8.19572 83.0484 12.1913C77.5799 16.187 78.001 22.7073 78.2106 25.232C78.2106 25.232 72.3229 23.338 68.1157 27.7547C66.8981 29.0174 66.0114 30.5614 65.5344 32.2495C65.0574 33.9375 65.0048 35.7173 65.3815 37.4305C65.3815 37.4305 57.6343 37.2128 56.1268 44.372C55.2703 48.4408 56.8694 51.1486 58.6434 52.825C59.6839 53.8013 60.8994 54.5723 62.2261 55.0975C62.2261 55.0975 63.0683 50.4712 64.1201 47.9464C65.8209 43.8654 68.7098 40.4496 75.0572 39.7436L76.9004 39.5402C81.3029 39.0478 83.4513 38.6735 85.1236 36.4417C87.0156 33.917 85.7746 28.8065 85.7746 28.8065C85.7746 28.8065 80.8696 27.7161 81.5674 23.7591C82.2001 20.1846 86.4052 20.1846 88.7184 22.7073C88.7184 22.7073 92.2949 21.8671 95.6599 18.081C95.6599 18.081 98.1215 18.6588 99.7999 18.376C99.5131 16.4799 99.0085 14.7405 97.9812 13.4527Z" fill="#30242A"/>
<path d="M65.0071 37.6013C65.23 38.6554 65.6318 39.6634 66.1952 40.5818" stroke="black" stroke-width="0.813772" stroke-miterlimit="10" stroke-linecap="round"/>
<path d="M86.9953 62.1712L80.6865 62.3685" stroke="#30242A" stroke-width="0.813772" stroke-linecap="round" stroke-linejoin="round"/>
<path d="M92.8117 35.927C91.93 35.5809 91.0699 35.1821 90.2361 34.7328" stroke="#30242A" stroke-width="0.813772" stroke-linecap="round" stroke-linejoin="round"/>
<path d="M94.3885 41.7658L94.0447 39.5869" stroke="#30242A" stroke-width="0.813772" stroke-linecap="round" stroke-linejoin="round"/>
<path d="M77.7854 25.3114L78.2228 28.9489" stroke="black" stroke-width="0.813772" stroke-miterlimit="10" stroke-linecap="round"/>
<path d="M98.6283 29.6406C98.1828 29.9295 96.7058 30.0251 95.9978 28.7373" stroke="#30242A" stroke-width="0.813772" stroke-linecap="round" stroke-linejoin="round"/>
<path d="M86.798 25.4985L84.8267 24.5138" stroke="#30242A" stroke-width="0.813772" stroke-linecap="round" stroke-linejoin="round"/>
<path d="M95.9 24.6257C95.5846 25.055 94.0975 25.8871 92.9785 24.937" stroke="#30242A" stroke-width="0.813772" stroke-linecap="round" stroke-linejoin="round"/>
<path d="M100.691 24.0053C100.456 24.0553 100.213 24.0584 99.9759 24.0145C99.7392 23.9705 99.5135 23.8802 99.3118 23.7489" stroke="#30242A" stroke-width="0.813772" stroke-linecap="round" stroke-linejoin="round"/>
<path d="M98.0239 24.7376C98.2497 25.2483 98.4673 25.8118 98.4206 26.0275C98.3511 26.2897 98.1948 26.5207 97.9771 26.6826" stroke="#30242A" stroke-width="0.813772" stroke-linecap="round" stroke-linejoin="round"/>
<path d="M85.7176 27.8808L83.0261 30.4198C82.8804 30.5572 82.7723 30.7297 82.7122 30.9207C82.6521 31.1118 82.642 31.3151 82.6828 31.5111C82.7236 31.7072 82.814 31.8896 82.9453 32.0408C83.0766 32.192 83.2445 32.307 83.433 32.3749L86.6148 33.504C86.8039 33.5709 87.0071 33.5881 87.2047 33.554C87.4024 33.5199 87.588 33.4356 87.7438 33.3092C87.8996 33.1829 88.0203 33.0186 88.0944 32.8322C88.1685 32.6458 88.1936 32.4435 88.1671 32.2447L87.6768 28.5827C87.6481 28.3699 87.5615 28.169 87.4264 28.002C87.2913 27.835 87.1129 27.7084 86.9107 27.636C86.7085 27.5635 86.4903 27.5481 86.2799 27.5912C86.0695 27.6344 85.875 27.7346 85.7176 27.8808V27.8808Z" fill="#F4E6D8"/>
<path d="M124.358 28.5563C124.358 28.5563 125.737 27.7669 126.921 28.1616C128.752 28.7719 128.484 30.4768 128.484 30.4768C128.484 30.4768 131.051 29.5511 131.549 32.2651C131.549 32.2651 133.865 32.7838 133.344 35.099C133.344 35.099 135.218 35.1987 134.845 37.6543C134.473 40.1098 132.835 42.1503 131.851 42.1503C130.833 42.1503 130.115 41.5258 130.254 39.709C130.254 39.709 129.021 41.2552 127.708 40.5676C126.396 39.8799 126.921 38.3989 126.921 38.3989C126.921 38.3989 125.737 39.1882 124.752 38.1954C123.859 37.3023 124.549 35.8294 124.549 35.8294C124.549 35.8294 123.239 36.3644 122.775 35.4347C121.788 33.4633 124.502 31.3435 124.944 30.7046L124.358 28.5563Z" fill="#A15842"/>
<path d="M126.26 39.3855C128.511 37.4707 130.349 35.1171 131.661 32.4685" stroke="#30242A" stroke-width="0.813772" stroke-linecap="round" stroke-linejoin="round"/>
<path d="M129.745 40.8463C130.355 40.1016 132.489 37.4264 133.547 35.3085" stroke="#30242A" stroke-width="0.813772" stroke-linecap="round" stroke-linejoin="round"/>
<path d="M129.362 86.1266H95.2163L102.978 61.6056C103.207 60.8836 103.661 60.2535 104.272 59.8066C104.884 59.3596 105.622 59.1189 106.379 59.1195H135.234C135.794 59.1193 136.347 59.2512 136.847 59.5046C137.347 59.7581 137.78 60.1258 138.112 60.5781C138.443 61.0303 138.663 61.5543 138.754 62.1075C138.845 62.6607 138.804 63.2276 138.635 63.7621L132.216 84.0392C132.024 84.6449 131.643 85.1736 131.13 85.5488C130.617 85.924 129.998 86.1263 129.362 86.1266V86.1266Z" fill="#30242A"/>
<path d="M124.132 70.5123C123.338 69.4259 119.731 72.2945 119.467 72.5325C119.328 72.2945 117.453 69.4259 116.075 70.5123C114.881 71.4543 117.499 75.6594 118.205 76.7316C118.235 76.7642 118.27 76.7903 118.31 76.8081C118.35 76.826 118.393 76.8352 118.437 76.8352C118.481 76.8352 118.524 76.826 118.564 76.8081C118.604 76.7903 118.64 76.7642 118.669 76.7316C119.953 75.6493 124.821 71.4441 124.132 70.5123Z" fill="#FFBE21"/>
<path d="M120.836 69.7445C121.122 68.824 121.111 68.0018 120.809 67.9079C120.508 67.814 120.031 68.484 119.744 69.4045C119.457 70.3249 119.469 71.1471 119.771 71.241C120.072 71.3349 120.549 70.6649 120.836 69.7445Z" fill="#FFBE21"/>
<path d="M55.8339 63.8943C56.2771 64.0651 56.7591 64.1096 57.226 64.0226C57.693 63.9357 58.1266 63.7208 58.4787 63.402C58.5204 63.877 58.6942 64.331 58.9803 64.7125C59.2665 65.094 59.6536 65.3879 60.098 65.561C60.5423 65.7341 61.0263 65.7795 61.4951 65.6921C61.9639 65.6046 62.3989 65.3878 62.751 65.0661C62.7938 65.5407 62.9682 65.9938 63.2546 66.3746C63.541 66.7553 63.928 67.0486 64.372 67.2213C64.816 67.3941 65.2994 67.4394 65.7679 67.3523C66.2363 67.2652 66.6711 67.0491 67.0233 66.7283C67.0559 67.1029 67.1708 67.4657 67.3597 67.7907C67.5487 68.1158 67.807 68.3952 68.1164 68.609C68.4257 68.8227 68.7784 68.9655 69.1493 69.0273C69.5202 69.089 69.9002 69.0682 70.2621 68.9662L73.3382 60.7043C74.5229 57.5329 75.0845 54.1626 74.9922 50.7783L74.6809 39.7924C74.6809 39.7924 67.5828 40.3824 63.4427 45.5092C61.3188 48.1397 57.1502 55.0893 54.479 62.6452C54.7597 63.2155 55.2427 63.6608 55.8339 63.8943V63.8943Z" fill="#FA801F"/>
<path d="M68.6488 68.8848C68.2033 68.7131 67.8147 68.4201 67.527 68.039C67.2394 67.6579 67.0642 67.2038 67.0213 66.7283C66.6691 67.0491 66.2343 67.2652 65.7659 67.3523C65.2975 67.4394 64.814 67.3941 64.37 67.2213C63.926 67.0486 63.539 66.7553 63.2526 66.3746C62.9662 65.9938 62.7918 65.5407 62.749 65.0662C62.3969 65.3878 61.9619 65.6046 61.4931 65.6921C61.0243 65.7795 60.5403 65.7341 60.096 65.561C59.6516 65.3879 59.2645 65.094 58.9783 64.7125C58.6922 64.331 58.5184 63.8771 58.4767 63.402C58.1838 63.6687 57.8331 63.8638 57.452 63.9719C57.0709 64.0801 56.67 64.0983 56.2807 64.0251C55.8914 63.9519 55.5244 63.7894 55.2086 63.5503C54.8928 63.3112 54.6368 63.0021 54.4607 62.6472C52.1455 69.1961 50.9534 76.2026 53.1953 81.246C58.021 92.1078 72.5041 88.2851 75.9219 87.2801C79.3398 86.2751 85.9802 82.8552 90.405 83.4594C94.8299 84.0637 99.857 86.2751 100.663 83.4594C100.663 83.4594 103.37 83.3903 102.518 80.8147C102.518 80.8147 103.879 80.6458 104.08 79.6408C104.487 77.6288 99.6556 75.8202 99.6556 75.8202C99.6556 75.8202 103.478 76.4305 104.282 75.6167C105.299 74.5995 104.31 72.9577 98.0667 71.4441C91.2086 69.784 82.1575 70.789 68.6814 73.2018L70.2581 68.9641C69.7273 69.1132 69.1624 69.0854 68.6488 68.8848V68.8848Z" fill="#A15842"/>
<path d="M73.3911 59.6078L68.8889 72.7502" stroke="#30242A" stroke-width="0.813772" stroke-linecap="round" stroke-linejoin="round"/>
<path d="M100.87 75.9646C98.6852 75.1345 95.0477 73.861 92.2239 73.4012" stroke="#30242A" stroke-width="0.813772" stroke-linecap="round" stroke-linejoin="round"/>
<path d="M102.575 80.7089C99.7674 79.4455 94.4046 77.1527 91.5198 76.7214" stroke="#30242A" stroke-width="0.813772" stroke-linecap="round" stroke-linejoin="round"/>
<path d="M68.714 72.7787C67.2003 73.0228 64.8241 73.4277 62.45 73.9017" stroke="#30242A" stroke-width="0.813772" stroke-linecap="round" stroke-linejoin="round"/>
<path d="M100.579 83.7361C98.4736 82.664 94.0365 80.5319 90.9177 79.9378" stroke="#30242A" stroke-width="0.813772" stroke-linecap="round" stroke-linejoin="round"/>
</svg>
