<svg width="282" height="277" viewBox="0 0 282 277" fill="none" xmlns="http://www.w3.org/2000/svg">
<path d="M14.746 155.715C-31.3085 123.178 39.1717 72.5038 107.066 60.9121C273.903 23.6533 323.995 127.564 246.161 173.516C184.957 209.651 207.248 233.13 101.681 240.168C13.3839 246.055 52.8339 182.624 14.746 155.715Z" fill="#FA801F" fill-opacity="0.2"/>
<path d="M109.623 245.878C102.958 249.142 103.585 255.405 103.526 259.61C103.458 264.09 94.9106 266.433 94.9106 266.433C97.1847 259.267 95.5674 251.887 95.5674 251.887L109.623 245.878Z" fill="#A0505A"/>
<path d="M116.69 262.375L115.171 263.198L111.985 255.915C111.819 255.533 111.446 255.307 111.064 255.307C110.937 255.307 110.799 255.337 110.672 255.386C110.349 255.523 110.113 255.827 110.074 256.18L108.672 266.736L90.2352 276.773C89.6863 275.46 93.1071 272.167 94.9205 266.433C94.9205 266.433 103.477 264.09 103.536 259.61C103.595 255.405 102.978 249.132 109.633 245.878L111.035 245.28C118.68 248.799 116.69 262.375 116.69 262.375Z" fill="#FA801F"/>
<path d="M111.025 193.566V245.28L95.7737 251.896L84.3447 199.976C89.4613 200.172 97.9889 199.094 111.025 193.566Z" fill="white" stroke="#434343" stroke-width="0.490091" stroke-miterlimit="10"/>
<path d="M99.8115 198.114L102.821 248.819" stroke="#9A3B82" stroke-width="0.490091" stroke-miterlimit="10"/>
<path d="M111.025 193.566V207.102L85.0701 203.348L84.3447 199.976C89.4613 200.172 97.9889 199.094 111.025 193.566Z" fill="#434343"/>
<path d="M187.891 158.475L178.031 160.553C177.698 160.622 177.364 160.514 177.129 160.269C176.962 160.083 176.874 159.857 176.874 159.622C176.874 159.367 176.972 159.112 177.178 158.926L182.667 153.78L181.452 152.692C181.452 152.692 168.709 155.192 167.984 163.141L168.954 164.199C173.963 169.12 179.364 166.581 183.138 165.307C186.745 164.092 191.048 169.688 191.9 170.845C191.91 170.845 191.93 170.845 191.94 170.845C197.625 170.659 201.653 172.678 202.643 171.766L187.891 158.475Z" fill="#FA801F"/>
<path d="M168.964 164.2C173.973 169.12 179.374 166.581 183.148 165.307C187.166 163.954 191.959 170.845 191.959 170.845C184.843 171.071 178.776 174.844 178.776 174.844L168.964 164.2Z" fill="#A0505A"/>
<path d="M108.075 194.007C108.075 194.007 110.555 210.758 129.58 210.445C148.605 210.131 178.569 174.746 178.569 174.746L168.032 163.2L108.075 194.007Z" fill="white" stroke="#434343" stroke-width="0.490091" stroke-miterlimit="10"/>
<path d="M119.042 189.459C119.67 193.87 122.63 198.026 131.657 197.879C145.066 197.663 164.013 180.069 174.031 169.698" stroke="#434343" stroke-width="0.490091" stroke-miterlimit="10"/>
<path d="M191.116 129.031C189.381 128.374 185.255 130.628 182.148 134.549C178.805 138.754 177.452 143.224 178.923 144.39L131.845 119.356C129.531 118.131 126.865 120.228 127.522 122.757L141.774 176.746C93.4998 208.072 78.0227 198.682 78.0227 198.682V21.2692C78.0227 21.279 78.0227 21.279 78.0325 21.2888C78.4442 22.3376 82.8648 21.6025 87.9128 19.6323C92.5588 17.8287 96.1071 15.6135 96.3325 14.4569L96.3423 14.4471V70.347C96.3423 73.856 98.2341 77.0808 101.292 78.7961L191.116 129.031Z" fill="#FE5244"/>
<path d="M191.116 129.031C189.381 128.374 185.255 130.628 182.148 134.549C178.805 138.754 177.452 143.224 178.923 144.39L131.845 119.356C129.531 118.131 126.865 120.228 127.522 122.757L141.774 176.961C129.502 184.93 119.347 190.047 111.025 193.576C97.989 199.094 89.4614 200.182 84.3449 199.986C79.8851 199.819 78.0227 198.682 78.0227 198.682V21.2692C78.0227 21.279 78.0227 21.279 78.0325 21.2888C78.4442 22.3376 82.8648 21.6025 87.9128 19.6323C92.5588 17.8287 96.1071 15.6135 96.3325 14.4569L96.3423 14.4471V70.347C96.3423 73.856 98.2341 77.0808 101.292 78.7961L191.116 129.031Z" fill="#1A296E"/>
<path d="M123.591 115.004L178.923 145.017" stroke="white" stroke-width="0.58811" stroke-miterlimit="10" stroke-linecap="round"/>
<path d="M102.606 79.5215L96.4014 115.582L128.071 93.7733L102.606 79.5215Z" fill="#FA801F"/>
<path d="M102.606 79.5215L96.4014 115.582L128.071 93.7733" stroke="white" stroke-width="0.58811" stroke-miterlimit="10" stroke-linecap="round"/>
<path d="M96.3328 14.4569C96.1074 15.6135 92.5592 17.8287 87.9131 19.6323C82.8651 21.5926 78.4445 22.3376 78.0328 21.2888C78.0328 21.279 78.0328 21.279 78.023 21.2692C77.6702 20.2106 81.4145 17.7895 86.433 15.839C91.4809 13.8786 95.9016 13.1337 96.3132 14.1825C96.3427 14.2609 96.3525 14.3491 96.3328 14.4569Z" fill="#434343"/>
<path d="M92.9316 6.22337L92.3925 14.006L92.1376 17.7307C90.9124 18.3776 89.4716 19.0246 87.9131 19.6323C85.2666 20.6615 82.7965 21.3476 80.9832 21.6318V14.5157L88.4228 12.9866C88.4228 12.9866 88.8344 10.3303 89.6186 8.10532C90.3929 5.87051 92.9316 6.22337 92.9316 6.22337Z" fill="#A0505A"/>
<path d="M88.6285 12.6632C88.5207 13.1043 85.2861 14.1335 85.2861 16.4859" stroke="#73325A" stroke-width="0.392073" stroke-miterlimit="10" stroke-linecap="round"/>
<path d="M92.3925 14.006L92.1376 17.7307C90.9124 18.3776 89.4716 19.0246 87.9131 19.6323C85.2666 20.6615 82.7965 21.3476 80.9832 21.6319V18.4169C82.4338 17.5641 84.3256 16.6623 86.433 15.839C88.6286 14.9764 90.7066 14.3491 92.3925 14.006Z" fill="#73325A"/>
<path d="M88.4032 13.0552L80.101 14.9568C79.66 15.0548 79.2483 14.702 79.2483 14.2119V9.17372C79.2483 8.49739 79.66 7.90928 80.2579 7.71324L88.462 5.03735C88.9815 4.87071 89.501 5.28239 89.501 5.8607V11.6046C89.4912 12.3005 89.0403 12.9082 88.4032 13.0552Z" fill="#A0505A"/>
<path d="M82.1886 14.1727C81.7377 14.2707 81.3064 13.9276 81.3064 13.4571V8.62484C81.3064 7.97792 81.7279 7.40941 82.3454 7.22318" stroke="#73325A" stroke-width="0.392073" stroke-miterlimit="10" stroke-linecap="round"/>
<path d="M84.5799 13.6532C84.129 13.7512 83.6978 13.3983 83.6978 12.918V7.9387C83.6978 7.27218 84.1192 6.68407 84.7367 6.49783" stroke="#73325A" stroke-width="0.392073" stroke-miterlimit="10" stroke-linecap="round"/>
<path d="M87.2562 13.0846C86.8053 13.1827 86.374 12.82 86.374 12.3299V7.17414C86.374 6.48801 86.7955 5.8803 87.413 5.68427" stroke="#73325A" stroke-width="0.392073" stroke-miterlimit="10" stroke-linecap="round"/>
<path d="M187.47 138.774C184.128 142.988 180.383 145.547 178.913 144.38C177.443 143.214 178.796 138.754 182.138 134.539C185.255 130.618 189.372 128.364 191.107 129.021L191.45 129.217C192.93 130.393 190.813 134.569 187.47 138.774Z" fill="#434343"/>
<path d="M202.594 145.86L200.369 147.036C199.487 147.507 198.389 147.174 197.918 146.292L195.576 141.94L192.027 140.724C192.42 140.871 193.949 141.655 193.468 144.508L185.137 141.4L182.275 140.332L179.56 138.597C180.197 137.303 181.069 135.911 182.157 134.549C183.069 133.402 184.059 132.402 185.049 131.579L187.881 133.559L190.783 133.873L195.497 134.373C196.252 134.451 196.977 134.706 197.615 135.108L201.378 137.784C201.927 138.176 202.29 138.764 202.378 139.43L203.143 144.782C203.211 145.223 202.986 145.654 202.594 145.86Z" fill="#A0505A"/>
<path d="M197.116 137.146L200.38 139.469C200.85 139.803 201.164 140.322 201.252 140.901L201.919 145.223C201.968 145.605 201.781 145.978 201.438 146.154" stroke="#73325A" stroke-width="0.392073" stroke-miterlimit="10" stroke-linecap="round"/>
<path d="M195.096 137.921L198.36 140.244C198.831 140.577 199.144 141.097 199.233 141.675L199.899 145.997C199.948 146.38 199.762 146.752 199.419 146.929" stroke="#73325A" stroke-width="0.392073" stroke-miterlimit="10" stroke-linecap="round"/>
<path d="M192.028 140.714L189.656 139.911" stroke="#73325A" stroke-width="0.392073" stroke-miterlimit="10" stroke-linecap="round"/>
<path d="M190.783 133.873C189.989 135.372 188.832 137.078 187.479 138.783C186.705 139.754 185.921 140.636 185.137 141.4L182.275 140.332L179.56 138.597C180.197 137.303 181.069 135.911 182.157 134.549C183.069 133.402 184.059 132.402 185.049 131.579L187.881 133.559L190.783 133.873Z" fill="#73325A"/>
<path d="M105.193 53.3506L126.159 62.6525L133.638 84.5302L118.445 73.6698L111.358 65.0148L105.193 53.3506Z" fill="#1A296E"/>
<path d="M111.358 65.0148C111.358 65.0148 118.22 66.191 120.984 73.8364L122.444 72.3661C122.444 72.3661 119.788 64.9266 112.77 63.0152L111.358 65.0148Z" fill="#9A3B82"/>
<path d="M152.251 74.5128C149.898 73.1797 147.722 72.4446 147.027 72.7092C147.076 72.5916 147.105 72.4544 147.095 72.3171C147.056 71.8859 146.703 71.5624 146.282 71.5624C146.262 71.5624 146.242 71.5624 146.213 71.5624C145.762 71.6016 145.429 71.9937 145.458 72.4446C145.458 72.474 145.468 72.5034 145.468 72.523L142.978 74.1207C142.42 74.4833 141.734 74.5029 141.145 74.1795C140.557 73.856 140.214 73.2679 140.214 72.6014V69.0237C140.214 67.4652 139.44 66.0244 138.136 65.1618C136.833 64.2992 135.196 64.162 133.765 64.7697L129.021 66.8869L127.217 61.6037L106.143 52.2626C106.016 52.2038 105.859 52.2626 105.8 52.3998C105.741 52.5272 105.8 52.6841 105.937 52.7429L126.796 61.9958L134.235 83.7657C134.274 83.8735 134.372 83.9421 134.48 83.9421C134.51 83.9421 134.539 83.9323 134.568 83.9323C134.706 83.8833 134.774 83.7363 134.735 83.599L129.197 67.3868L133.98 65.25C135.255 64.7011 136.705 64.8285 137.852 65.5931C139.009 66.3576 139.695 67.6319 139.695 69.0237V72.6014C139.695 73.464 140.146 74.2285 140.9 74.6402C141.253 74.8362 141.636 74.9342 142.018 74.9342C142.449 74.9342 142.88 74.8068 143.263 74.5618L145.733 72.9837C145.88 73.1209 146.076 73.1993 146.282 73.1993C146.301 73.1993 146.331 73.1993 146.35 73.1993C146.527 73.1895 146.683 73.1209 146.801 73.0131C146.801 73.709 148.585 75.2675 151.035 76.6593C151.565 76.9632 152.094 77.2377 152.594 77.4729C152.898 77.2181 153.153 76.9142 153.359 76.5515C153.564 76.1987 153.692 75.8164 153.751 75.4243C153.28 75.1303 152.78 74.8166 152.251 74.5128ZM146.301 72.7876C146.076 72.8072 145.89 72.6406 145.87 72.425C145.85 72.2093 146.017 72.0133 146.233 71.9937C146.448 71.9741 146.644 72.1407 146.664 72.3563C146.683 72.572 146.517 72.768 146.301 72.7876Z" fill="#FA801F"/>
<path d="M109.996 77.9042L106.37 98.0763L118.73 88.5489V75.9732L109.996 77.9042Z" fill="#A0505A"/>
<path d="M109.996 77.9042L109.545 80.433L115.014 91.4111L118.729 88.549V75.9732L109.996 77.9042Z" fill="#73325A"/>
<path d="M111.565 65.2206C111.565 65.2206 105.38 63.6817 103.449 67.2692C101.518 70.8567 107.164 71.8466 107.399 70.592C107.507 70.0431 97.2344 70.0529 98.9595 77.8258C100.753 85.9221 108.84 83.1384 108.84 83.1384L109.781 77.9042L111.565 65.2206Z" fill="white" stroke="#434343" stroke-width="0.392073" stroke-miterlimit="10"/>
<path d="M118.631 76.826C118.631 76.826 109.398 88.8626 117.514 93.9792C124.022 98.0763 125.698 92.3031 123.954 91.5091C122.062 90.6465 117.72 106.918 131.089 106.869C144.488 106.82 140.391 90.0878 133.638 84.54C130.413 81.8935 119.651 74.4931 119.651 74.4931L118.631 76.826Z" fill="white" stroke="#434343" stroke-width="0.392073" stroke-miterlimit="10"/>
<path d="M118.357 73.807L119.053 74.2481C119.73 74.6794 119.926 75.5713 119.504 76.2477L119.367 76.4535C118.936 77.1298 118.044 77.3357 117.367 76.9044L116.622 76.4339C115.799 77.022 110.849 80.3252 107.791 77.0416C104.821 73.856 111.682 64.5345 111.682 64.5345C117.505 66.3576 119.779 71.533 119.779 71.533L118.357 73.807Z" fill="#A0505A"/>
<path d="M109.771 66.6517C109.771 66.6517 111.378 67.2496 111.222 68.6316C111.065 70.0137 109.614 72.1897 109.957 72.5622C110.3 72.9346 110.761 73.0032 110.761 73.0032" stroke="#73325A" stroke-width="0.392073" stroke-miterlimit="10" stroke-linecap="round"/>
<path d="M109.379 73.8364C109.379 73.8364 110.575 74.5029 112.202 74.2481" stroke="#73325A" stroke-width="0.392073" stroke-miterlimit="10" stroke-linecap="round"/>
<path d="M114.505 71.8748C114.644 71.5106 114.596 71.1544 114.399 71.0792C114.202 71.004 113.929 71.2383 113.79 71.6025C113.652 71.9667 113.699 72.3229 113.896 72.3981C114.094 72.4733 114.366 72.239 114.505 71.8748Z" fill="#73325A"/>
<path d="M109.979 69.7987C110.095 69.4952 110.053 69.1976 109.886 69.134C109.719 69.0703 109.49 69.2648 109.375 69.5683C109.259 69.8718 109.3 70.1694 109.467 70.233C109.634 70.2967 109.863 70.1022 109.979 69.7987Z" fill="#73325A"/>
<path d="M117.848 75.4929C118.122 75.0616 118.691 74.9342 119.122 75.2087" stroke="#73325A" stroke-width="0.392073" stroke-miterlimit="10" stroke-linecap="round"/>
<path d="M114.231 69.2883C114.231 69.2883 115.427 69.6118 116.044 71.0331" stroke="#73325A" stroke-width="0.392073" stroke-miterlimit="10" stroke-linecap="round"/>
<path d="M116.015 66.9065C116.015 66.9065 114.711 71.2291 118.446 74.1795C120.641 75.9144 120.769 73.8266 120.769 73.8266C120.769 73.8266 120.484 69.5824 116.015 66.9065Z" fill="white" stroke="#9A3B82" stroke-width="0.392073" stroke-miterlimit="10"/>
<circle cx="62.5" cy="236.5" r="9.5" fill="#FA801F"/>
<circle cx="28.5" cy="87.5" r="26.5" fill="#FA801F"/>
<circle cx="211" cy="197" r="13" fill="#FA801F"/>
<circle cx="198" cy="37" r="37" fill="#FA801F"/>
<circle cx="210.5" cy="107.5" r="5.5" fill="#FA801F"/>
</svg>
