<svg width="414" height="896" viewBox="0 0 414 896" fill="none" xmlns="http://www.w3.org/2000/svg">
<g clip-path="url(#clip0)">
<rect width="414" height="896" fill="#1A296E"/>
<circle cx="-20" cy="810" r="126" fill="#243686"/>
<circle cx="453" cy="43" r="220" fill="#243686"/>
<path d="M67.0828 -43C41.4161 17 23.3828 137.2 156.583 138C323.083 139 479.583 156.5 448.583 315.5" stroke="white"/>
<path d="M89.0828 -58C63.4161 2 45.3828 122.2 178.583 123C345.083 124 501.583 141.5 470.583 300.5" stroke="white"/>
<path d="M111.083 -78C85.4161 -18 67.3828 102.2 200.583 103C367.083 104 523.583 121.5 492.583 280.5" stroke="white"/>
<path d="M139.083 -93C113.416 -33 95.3828 87.2 228.583 88C395.083 89 551.583 106.5 520.583 265.5" stroke="white"/>
<path d="M-75.9172 630C-101.584 690 -119.617 810.2 13.5828 811C180.083 812 336.583 829.5 305.583 988.5" stroke="white"/>
<path d="M-53.9172 615C-79.5839 675 -97.6172 795.2 35.5828 796C202.083 797 358.583 814.5 327.583 973.5" stroke="white"/>
<path d="M-31.9172 595C-57.5839 655 -75.6172 775.2 57.5828 776C224.083 777 380.583 794.5 349.583 953.5" stroke="white"/>
<path d="M-3.91719 580C-29.5839 640 -47.6172 760.2 85.5828 761C252.083 762 408.583 779.5 377.583 938.5" stroke="white"/>
<circle cx="0.924161" cy="428.924" r="49.5" transform="rotate(-19.6922 0.924161 428.924)" stroke="white"/>
<circle cx="18.6346" cy="457.635" r="49.5" transform="rotate(-19.6922 18.6346 457.635)" stroke="white"/>
<circle cx="415.596" cy="590.596" r="64.7332" transform="rotate(-19.6922 415.596 590.596)" stroke="white" stroke-width="1.30774"/>
</g>
<defs>
<clipPath id="clip0">
<rect width="414" height="896" fill="white"/>
</clipPath>
</defs>
</svg>
